<?xml version="1.0" encoding="UTF-8"?>
<!DOCTYPE svg PUBLIC "-//W3C//DTD SVG 1.1//EN" "http://www.w3.org/Graphics/SVG/1.1/DTD/svg11.dtd">
<svg xmlns="http://www.w3.org/2000/svg" version="1.1" width="500px" height="158px" style="shape-rendering:geometricPrecision; text-rendering:geometricPrecision; image-rendering:optimizeQuality; fill-rule:evenodd; clip-rule:evenodd" xmlns:xlink="http://www.w3.org/1999/xlink">
<g><path style="opacity:0.857" fill="#885ef4" d="M 65.5,-0.5 C 66.8333,-0.5 68.1667,-0.5 69.5,-0.5C 91.5214,12.5996 113.688,25.5996 136,38.5C 136.832,49.1823 136.666,59.8489 135.5,70.5C 133.004,71.5804 130.67,72.9138 128.5,74.5C 127.668,64.1827 127.168,53.8494 127,43.5C 104.217,30.5298 81.7169,17.1964 59.5,3.5C 61.8072,2.5082 63.8072,1.17486 65.5,-0.5 Z"/></g>
<g><path style="opacity:0.844" fill="#682cfb" d="M 51.5,7.5 C 58.4814,9.82227 65.1481,12.9889 71.5,17C 76.6682,20.4185 82.0016,23.5852 87.5,26.5C 88.521,27.0016 88.6877,27.6683 88,28.5C 85.9656,30.0316 83.7989,31.3649 81.5,32.5C 69.3003,26.24 57.6337,19.24 46.5,11.5C 48.4192,10.3875 50.0858,9.05419 51.5,7.5 Z"/></g>
<g><path style="opacity:0.762" fill="#d88cff" d="M 39.5,14.5 C 42.3416,16.0868 45.0083,17.9201 47.5,20C 42.4181,25.8247 37.4181,25.658 32.5,19.5C 35.0765,18.0569 37.4099,16.3902 39.5,14.5 Z"/></g>
<g><path style="opacity:0.91" fill="#885df4" d="M -0.5,118.5 C -0.5,91.8333 -0.5,65.1667 -0.5,38.5C 8.44733,33.3925 17.2807,28.0592 26,22.5C 28.9156,24.0406 31.7489,25.7073 34.5,27.5C 25.7855,32.9445 16.9522,38.2778 8,43.5C 7.35244,70.2453 7.35244,96.912 8,123.5C 5.05679,121.948 2.22346,120.281 -0.5,118.5 Z"/></g>
<g><path style="opacity:0.86" fill="#885ef4" d="M 52.5,23.5 C 53.8734,23.3433 55.2068,23.51 56.5,24C 66.8333,30.1667 77.1667,36.3333 87.5,42.5C 84.8333,44.1667 82.1667,45.8333 79.5,47.5C 71.2248,42.4453 62.7248,37.7786 54,33.5C 43.4354,39.1994 32.9354,45.0327 22.5,51C 19.3538,50.7642 16.3538,49.9309 13.5,48.5C 13.281,47.325 13.6143,46.325 14.5,45.5C 27.5567,38.645 40.2234,31.3117 52.5,23.5 Z"/></g>
<g><path style="opacity:0.809" fill="#885ef3" d="M 100.5,33.5 C 103.039,38.0399 106.706,41.7066 111.5,44.5C 109.207,45.6261 107.04,46.9594 105,48.5C 103.829,50.8422 102.662,53.1756 101.5,55.5C 99.4926,50.1593 95.826,46.4926 90.5,44.5C 95.2745,42.0627 98.6078,38.396 100.5,33.5 Z"/></g>
<g><path style="opacity:0.664" fill="#885ef4" d="M 58.5,41.5 C 60.2723,43.2959 62.2723,44.9625 64.5,46.5C 65.3857,47.325 65.719,48.325 65.5,49.5C 62.8992,50.2796 60.8992,51.9463 59.5,54.5C 58.6759,51.3369 56.6759,49.6702 53.5,49.5C 53.5,48.5 53.5,47.5 53.5,46.5C 56.8333,46.5 58.5,44.8333 58.5,41.5 Z"/></g>
<g><path style="opacity:0.848" fill="#885ef4" d="M 120.5,46.5 C 121.831,54.1376 122.498,62.1376 122.5,70.5C 122.167,78.5 121.833,86.5 121.5,94.5C 110.42,100.455 99.5871,106.788 89,113.5C 88.3333,110.167 88.3333,106.833 89,103.5C 96.7507,98.7075 104.584,94.0408 112.5,89.5C 113.333,76.5128 113.833,63.5128 114,50.5C 116.314,49.2668 118.481,47.9334 120.5,46.5 Z"/></g>
<g><path style="opacity:0.809" fill="#682cfb" d="M 38.5,47.5 C 41.5158,47.8406 44.1825,49.0073 46.5,51C 47.7112,51.8928 47.7112,52.7261 46.5,53.5C 42.8872,55.89 39.0538,57.89 35,59.5C 32.6827,58.1736 30.3494,56.8403 28,55.5C 27.3123,54.6683 27.479,54.0016 28.5,53.5C 32.1352,51.8355 35.4685,49.8355 38.5,47.5 Z"/></g>
<g><path style="opacity:0.838" fill="#885ef4" d="M 218.5,50.5 C 227.725,67.7904 236.059,85.6238 243.5,104C 243.167,104.5 242.833,105 242.5,105.5C 240.412,104.821 238.412,104.488 236.5,104.5C 234.36,100.388 232.36,96.2209 230.5,92C 222.507,91.5003 214.507,91.3336 206.5,91.5C 205.197,96.5814 203.03,101.248 200,105.5C 198.542,104.253 197.042,104.253 195.5,105.5C 195.167,105 194.833,104.5 194.5,104C 202.41,86.0954 210.41,68.2621 218.5,50.5 Z M 218.5,64.5 C 221.477,71.065 224.477,77.7316 227.5,84.5C 221.528,85.6636 215.528,85.8303 209.5,85C 213.455,78.5904 216.455,71.7571 218.5,64.5 Z"/></g>
<g><path style="opacity:0.814" fill="#885ef4" d="M 248.5,50.5 C 249.675,50.281 250.675,50.6143 251.5,51.5C 262.096,64.3528 272.93,77.0195 284,89.5C 284.5,77.1712 284.667,64.8378 284.5,52.5C 286.833,52.5 289.167,52.5 291.5,52.5C 291.833,70.5123 291.5,88.5123 290.5,106.5C 278.804,94.3039 267.638,81.6373 257,68.5C 256.5,80.4954 256.333,92.4954 256.5,104.5C 253.833,104.5 251.167,104.5 248.5,104.5C 248.5,86.5 248.5,68.5 248.5,50.5 Z"/></g>
<g><path style="opacity:0.834" fill="#885ef4" d="M 372.5,50.5 C 394.694,50.8672 404.861,62.2006 403,84.5C 396.675,104.246 383.842,110.413 364.5,103C 351.82,92.6208 348.654,79.7874 355,64.5C 359.237,57.755 365.071,53.0883 372.5,50.5 Z M 372.5,57.5 C 383.765,56.2117 391.265,60.8783 395,71.5C 397.523,81.5697 395.023,90.0697 387.5,97C 374.233,102.694 365.067,98.8611 360,85.5C 356.972,72.6928 361.138,63.3595 372.5,57.5 Z"/></g>
<g><path style="opacity:0.844" fill="#885ef4" d="M 499.5,101.5 C 499.5,102.833 499.5,104.167 499.5,105.5C 497.661,104.248 495.828,104.248 494,105.5C 490.94,101.328 488.44,96.8285 486.5,92C 478.833,91.3333 471.167,91.3333 463.5,92C 461.56,96.8285 459.06,101.328 456,105.5C 452.042,105.209 448.042,105.209 444,105.5C 437.459,98.6281 431.293,91.4614 425.5,84C 423.527,83.5045 421.527,83.3379 419.5,83.5C 419.666,90.5079 419.5,97.5079 419,104.5C 417,104.5 415,104.5 413,104.5C 412.5,87.1699 412.333,69.8365 412.5,52.5C 419.175,52.3337 425.842,52.5004 432.5,53C 443.973,55.4533 448.14,62.2867 445,73.5C 442.673,78.4232 438.84,81.5899 433.5,83C 438.823,89.8212 444.489,96.3212 450.5,102.5C 458.463,84.9211 466.796,67.5877 475.5,50.5C 483.27,67.7028 491.27,84.7028 499.5,101.5 Z M 419.5,58.5 C 424.267,58.1908 428.934,58.6908 433.5,60C 437.238,61.3989 438.904,64.0655 438.5,68C 438.485,72.6937 436.152,75.6937 431.5,77C 427.514,77.4988 423.514,77.6655 419.5,77.5C 419.5,71.1667 419.5,64.8333 419.5,58.5 Z M 474.5,65.5 C 477.92,71.9043 481.253,78.4043 484.5,85C 478.472,85.8303 472.472,85.6636 466.5,84.5C 469.455,78.2605 472.122,71.9271 474.5,65.5 Z"/></g>
<g><path style="opacity:0.684" fill="#885ef4" d="M 77.5,51.5 C 79.5246,54.2928 82.1913,56.6261 85.5,58.5C 82.8061,60.5272 80.4728,62.8605 78.5,65.5C 77.1667,62.1667 74.8333,59.8333 71.5,58.5C 75.3324,57.6719 77.3324,55.3385 77.5,51.5 Z"/></g>
<g><path style="opacity:0.81" fill="#885ef4" d="M 164.5,52.5 C 171.841,52.3337 179.174,52.5003 186.5,53C 196.704,56.2398 200.537,63.0731 198,73.5C 195.668,79.1644 191.501,82.6644 185.5,84C 181.179,84.499 176.846,84.6657 172.5,84.5C 172.5,91.1667 172.5,97.8333 172.5,104.5C 169.833,104.5 167.167,104.5 164.5,104.5C 164.5,87.1667 164.5,69.8333 164.5,52.5 Z M 171.5,59.5 C 177.213,57.9487 182.88,58.4487 188.5,61C 194.003,69.3022 192.003,74.9689 182.5,78C 178.833,78.6667 175.167,78.6667 171.5,78C 172.826,71.7345 172.826,65.5678 171.5,59.5 Z"/></g>
<g><path style="opacity:0.822" fill="#885ef4" d="M 303.5,52.5 C 310.841,52.3337 318.174,52.5003 325.5,53C 345.211,59.2564 351.378,72.0898 344,91.5C 339.563,97.6008 333.73,101.767 326.5,104C 318.841,104.5 311.174,104.666 303.5,104.5C 303.5,87.1667 303.5,69.8333 303.5,52.5 Z M 311.5,58.5 C 335.243,57.708 343.41,68.3747 336,90.5C 330.192,96.1054 323.192,98.7721 315,98.5C 313.272,98.5463 311.772,98.0463 310.5,97C 311.461,84.0369 311.794,71.2035 311.5,58.5 Z"/></g>
<g><path style="opacity:0.847" fill="#d88cff" d="M 12.5,53.5 C 24.8841,60.1091 37.0507,67.1091 49,74.5C 49.8327,87.5128 49.666,100.513 48.5,113.5C 46.3295,111.914 43.9962,110.58 41.5,109.5C 40.6678,99.5166 40.1678,89.5166 40,79.5C 34.6315,75.968 29.1315,72.6347 23.5,69.5C 22.8333,73.5 22.1667,77.5 21.5,81.5C 19.0038,80.4196 16.6705,79.0862 14.5,77.5C 13.7727,69.4751 13.1061,61.4751 12.5,53.5 Z"/></g>
<g><path style="opacity:0.783" fill="#672bfb" d="M 106.5,54.5 C 107.809,56.5706 108.475,59.0706 108.5,62C 108.333,64.5 108.167,67 108,69.5C 105.502,71.417 102.835,73.0836 100,74.5C 99.1705,69.1357 99.3372,63.8023 100.5,58.5C 102.911,57.6389 104.911,56.3056 106.5,54.5 Z"/></g>
<g><path style="opacity:0.799" fill="#d88bff" d="M 52.5,55.5 C 55.2234,56.3519 57.89,57.5186 60.5,59C 61.7112,59.8928 61.7112,60.7261 60.5,61.5C 56.9564,63.7709 53.2897,65.7709 49.5,67.5C 46.7963,66.4278 44.1296,65.4278 41.5,64.5C 41.281,63.325 41.6143,62.325 42.5,61.5C 46.2288,59.977 49.5621,57.977 52.5,55.5 Z"/></g>
<g><path style="opacity:0.766" fill="#d88cff" d="M 92.5,62.5 C 93.8117,64.7432 94.4783,67.4098 94.5,70.5C 94.1667,73.1667 93.8333,75.8333 93.5,78.5C 90.9206,79.7061 88.4206,81.0394 86,82.5C 85.1705,77.1357 85.3372,71.8023 86.5,66.5C 88.9106,65.6389 90.9106,64.3056 92.5,62.5 Z"/></g>
<g><path style="opacity:0.828" fill="#885ef4" d="M 66.5,64.5 C 67.3764,64.3691 68.0431,64.7025 68.5,65.5C 70.4812,72.1479 74.8146,76.4813 81.5,78.5C 74.5074,80.8259 69.8408,85.4926 67.5,92.5C 65.9313,85.2647 61.598,80.598 54.5,78.5C 57.7511,76.625 60.9177,74.625 64,72.5C 65.7068,70.0912 66.5402,67.4245 66.5,64.5 Z"/></g>
<g><path style="opacity:0.871" fill="#d88cff" d="M 106.5,76.5 C 107.777,77.6936 108.444,79.3603 108.5,81.5C 108.333,83.1667 108.167,84.8333 108,86.5C 99.6667,91.5 91.3333,96.5 83,101.5C 82.3333,108.5 82.3333,115.5 83,122.5C 86.5814,120.626 90.0814,118.626 93.5,116.5C 94.8333,119.833 94.8333,123.167 93.5,126.5C 87.3303,130.419 80.9969,134.086 74.5,137.5C 74.1667,137.167 73.8333,136.833 73.5,136.5C 74.15,122.866 74.8166,109.199 75.5,95.5C 86.0642,89.3922 96.3975,83.0588 106.5,76.5 Z"/></g>
<g><path style="opacity:0.745" fill="#885ef4" d="M 134.5,76.5 C 135.777,77.6936 136.444,79.3603 136.5,81.5C 136.167,83.1667 135.833,84.8333 135.5,86.5C 133.004,87.5804 130.67,88.9138 128.5,90.5C 126.092,83.7221 128.092,79.0554 134.5,76.5 Z"/></g>
<g><path style="opacity:0.842" fill="#885ef4" d="M 26.5,78.5 C 29.378,79.37 32.0447,80.7033 34.5,82.5C 35.3322,92.4834 35.8322,102.483 36,112.5C 46.2533,119.045 56.7533,125.212 67.5,131C 68.6219,134.409 68.7886,137.909 68,141.5C 54.3333,133.5 40.6667,125.5 27,117.5C 26.5001,104.504 26.3334,91.5043 26.5,78.5 Z"/></g>
<g><path style="opacity:0.808" fill="#682cfb" d="M 12.5,84.5 C 16.0078,85.5041 19.1745,87.1707 22,89.5C 22.8328,103.512 22.6661,117.512 21.5,131.5C 19.1667,130.167 16.8333,128.833 14.5,127.5C 13.8008,113.134 13.1341,98.801 12.5,84.5 Z"/></g>
<g><path style="opacity:0.811" fill="#d88cff" d="M 54.5,91.5 C 58.647,94.0752 62.9803,96.4085 67.5,98.5C 68.487,101.768 68.8204,105.102 68.5,108.5C 64.2855,107.059 60.2855,105.059 56.5,102.5C 55.6872,98.8384 55.0206,95.1718 54.5,91.5 Z"/></g>
<g><path style="opacity:0.843" fill="#682cfb" d="M 134.5,92.5 C 135.765,93.5145 136.431,95.0145 136.5,97C 136.456,98.7642 136.122,100.431 135.5,102C 123.748,108.96 111.915,115.793 100,122.5C 100.046,118.974 100.546,115.474 101.5,112C 112.67,105.637 123.67,99.1366 134.5,92.5 Z"/></g>
<g><path style="opacity:0.819" fill="#682cfb" d="M 54.5,107.5 C 59.0549,110.029 63.5549,112.696 68,115.5C 68.6667,118.833 68.6667,122.167 68,125.5C 64.25,123.041 60.4166,120.708 56.5,118.5C 55.6872,114.838 55.0206,111.172 54.5,107.5 Z"/></g>
<g><path style="opacity:0.859" fill="#885ef4" d="M 69.5,157.5 C 68.1667,157.5 66.8333,157.5 65.5,157.5C 57.4806,152.4 49.3139,147.4 41,142.5C 40.3333,139.167 40.3333,135.833 41,132.5C 49.1667,137.333 57.3333,142.167 65.5,147C 66.8333,147.667 68.1667,147.667 69.5,147C 91.6297,134.366 113.63,121.533 135.5,108.5C 136.791,112.045 136.791,115.545 135.5,119C 113.273,131.608 91.273,144.441 69.5,157.5 Z"/></g>
<g><path style="opacity:0.708" fill="#d88bff" d="M 26.5,124.5 C 29.1401,125.82 31.8068,127.153 34.5,128.5C 35.487,131.768 35.8204,135.102 35.5,138.5C 32.5338,137.602 29.7005,136.269 27,134.5C 26.5017,131.183 26.335,127.85 26.5,124.5 Z"/></g>
</svg>
