<svg xmlns="http://www.w3.org/2000/svg" version="1.1" id="_图层_2" x="0" y="0" style="enable-background:new 0 0 1644.7 1516" xml:space="preserve" viewBox="7.47 0.9 1133.73 183.4">
  <style>
    .st0{fill:#f2981a}
  </style>
  <path class="st0" d="M155.8 30.9V88c-24.9-10.1-49.4-20-74-29.9-17.6 7.1-35.2 14.2-53 21.5v58.7c-.7-.4-1.1-.4-1.3-.7-11.7-14.3-20.6-29.5-20-49 .5-17.7.1-35.4.1-53V31C32.3 21 57 11 81.8.9c24.6 10 49.2 19.9 74 30m-74 4.3c17.6 7.1 35 14.1 52.7 21.3V45.1c-17.7-7.2-35.3-14.3-52.7-21.3C63.9 31 46.4 38.1 29.2 45.1v11.4C47 49.3 64.3 42.3 81.8 35.2"/>
  <path class="st0" d="M39.7 150.9V86.5c14-5.7 27.9-11.3 42.1-17.1 24.4 9.9 48.9 19.8 74.3 30.1-2.3 6.7-4.6 13.1-6.9 20-23-9.3-45.2-18.3-67.4-27.2-7 2.8-13.9 5.6-20.9 8.5V142c6.6 5.3 13.6 11 21 17.1 8.7-7.3 17.1-14.3 26.2-21.9-5.6-2.3-10.2-4.2-15.4-6.2-.2 2-.3 3.7-.5 5.9-3.1 2.6-6.6 5.4-10.4 8.6-3.6-2.9-7-5.7-10.4-8.4V108c3.3-1.3 6.7-2.8 10.3-4.3 20.2 8.2 40.5 16.4 61.3 24.8-16.7 23.1-38 40.3-61.2 55.8-15.2-9.8-29.2-20.8-42.1-33.4"/>
  <path d="m199 31.4-.9-12.2h37.4c4.9 0 9.1 1.1 12.3 3.2s5.7 4.9 7.4 8.2 2.5 6.9 2.5 10.6-.8 7.2-2.5 10.5c-1.6 3.3-4.1 6.1-7.4 8.2-3.3 2.2-7.4 3.2-12.3 3.2h-20.2v23.5H199V31.4zm16.3 1.4v16.8h18.5c2.7 0 4.7-.9 6.1-2.6 1.4-1.7 2-3.7 2-5.8s-.7-4-2-5.7c-1.4-1.8-3.4-2.7-6.1-2.7h-18.5zm72.1 40.3h44.5v13.6h-60.8V31.4l-.9-12.2h61.1v13.5h-43.9v13.4h37.4v13.6h-37.4v13.4zm91.2-24.7H410v38.3h-33.6c-5.7-.1-10.7-1-15-2.9s-7.9-4.5-10.8-7.7-5-6.9-6.5-10.8c-1.5-4-2.2-8.1-2.2-12.2 0-4.6.9-9 2.6-13.4 1.7-4.4 4.3-8.2 7.7-11.4 4.7-5.6 11.7-8.9 19-8.9h37.5v13.5h-31.9c-4 0-7.3 1-10 2.9s-4.7 4.5-6 7.6c-1.4 3.1-2 6.3-2 9.7s.7 6.5 2 9.6c1.3 3 3.3 5.6 5.9 7.6s5.9 3 9.8 3.1h18.1V59.7h-16V48.4zm120.2 4.5c0 6-1.2 11.3-3.5 15.8S490 77 486.2 80s-7.9 5.2-12.4 6.7-9 2.2-13.4 2.2-8.9-.7-13.5-2.2-8.7-3.7-12.4-6.7-6.8-6.7-9.1-11.2c-2.3-4.5-3.5-9.8-3.5-15.8 0-5.7 1-10.6 3-14.9 2-4.3 4.7-7.9 8-10.8 7-6.6 16.2-10.2 25.8-10.1h1.6c4.4 0 8.9.7 13.4 2.2s8.6 3.7 12.4 6.7 6.8 6.7 9.1 11.2c2.4 4.3 3.6 9.6 3.6 15.6zm-16.6 0c0-3.5-.7-6.5-2-9.1s-3-4.7-5.2-6.4-4.5-3-7-3.8-5.1-1.2-7.6-1.2-5 .4-7.6 1.2c-2.6.8-4.9 2.1-7.1 3.8-2.1 1.7-3.9 3.8-5.2 6.4-1.3 2.6-2 5.6-2 9.1s.7 6.5 2 9 3 4.7 5.2 6.4c2.1 1.7 4.5 3 7.1 3.8 2.6.8 5.1 1.2 7.6 1.2s5-.4 7.6-1.2 4.9-2.1 7-3.8c2.1-1.7 3.8-3.8 5.2-6.4 1.4-2.5 2-5.5 2-9zm53.4-21.5-.9-12.2h17.2l41.5 46.9V19.2h16.3v67.5h-16.3l-41.5-47v47h-16.3V31.4zm83.1-12.2h67.5v13.5H626l-7.3-13.5zm0 27h67.5v13.5H626l-7.3-13.5zm.3 26.9h67.2v13.6h-60L619 73.1zm76.6-53.9H769v13.4h-29.5v54.1h-16.3V32.6h-27.6V19.2zm118.5 68.4h-13L775 19.2h17l16.5 45.6 17-45.6h10.7l17 45.6 16.5-45.6h17l-26.1 68.4h-13l-16.7-43.5-16.8 43.5zm158-34.7c0 6-1.2 11.3-3.5 15.8s-5.3 8.2-9.1 11.2-7.9 5.2-12.4 6.7-9 2.2-13.4 2.2-8.9-.7-13.5-2.2-8.7-3.7-12.4-6.7c-3.8-3-6.8-6.7-9.1-11.2-2.3-4.5-3.5-9.8-3.5-15.8s1.2-11.3 3.5-15.8 5.3-8.2 9.1-11.2 7.9-5.2 12.4-6.7 9-2.2 13.5-2.2 8.9.7 13.4 2.2 8.6 3.7 12.4 6.7c3.8 3 6.8 6.7 9.1 11.2 2.3 4.5 3.5 9.8 3.5 15.8zm-16.6 0c0-3.5-.7-6.5-2-9.1s-3-4.7-5.2-6.4-4.5-3-7-3.8-5.1-1.2-7.6-1.2-5 .4-7.6 1.2c-2.6.8-4.9 2.1-7.1 3.8-2.2 1.7-3.9 3.8-5.2 6.4-1.3 2.6-2 5.6-2 9.1s.7 6.5 2 9 3 4.7 5.2 6.4c2.2 1.7 4.5 3 7.1 3.8 2.6.8 5.1 1.2 7.6 1.2s5-.4 7.6-1.2 4.9-2.1 7-3.8c2.1-1.7 3.8-3.8 5.2-6.4 1.4-2.5 2-5.5 2-9zM1036 60c4.6-1.6 8-4.3 10.2-7.9 2.2-3.7 3.4-7.6 3.4-11.7 0-3.5-.8-6.9-2.5-10.1s-4.1-5.8-7.4-7.9c-3.3-2-7.4-3.1-12.3-3.1h-47.9l7.2 13.6h1V89h16.3V61.3h14.5l20 27.6h19.2L1036 60zm-4.4-14.5c-1.5 1.6-3.9 2.4-6.9 2.4H1004v-15h20.6c3.1 0 5.4.8 6.9 2.4 1.5 1.6 2.3 3.3 2.3 5.2s-.7 3.4-2.2 5zm73.5 6 31.6-30.2h-20.6l-29.9 27.9V21.3H1069l.9 12.2v55.3h16.3V69.5l8.1-7.8 26 27.2h20.9zm-877.6 74.7h-23.2v16.3h25.5l-.8 5.2h-30.7v-45.9h30.4v5.2h-24.3v14h23.2v5.2zm29.2-12c4.8 7.4 6.8 10.6 8 12.5h.1c1.4-2.2 4.3-6.5 8.3-12.5h6.6l-11.5 16.1 11.6 17.4H273c-4.1-6.5-7-11.1-8.4-13.2h-.1c-1.1 1.9-3.9 6.3-8.3 13.2h-6.5l11.4-16.7-11.1-16.8h6.7zm51.5 29.3v17.3h-5.8v-38.5c0-2.7 0-5.6-.1-8.2h5.7c.1 1.1.2 3.1.2 5.3 1.8-3.4 5.3-6.1 11.1-6.1 7.9 0 13.6 6.5 13.6 16.7 0 12-6.6 18.4-14.8 18.4-5.5.1-8.4-2.2-9.9-4.9zm18.6-13.2c0-7.1-3.3-12-9.1-12-7 0-9.8 4.4-9.8 12.5 0 7.9 2.3 12.7 9.4 12.7 6.2.1 9.5-4.9 9.5-13.2zm31.2 17.4V99.2h5.9v48.5H358zm62.5-16.8c0 9.6-5.6 17.6-16 17.6-9.7 0-15.6-7.4-15.6-17.5 0-9.9 5.8-17.6 16-17.6 9.4 0 15.6 7 15.6 17.5zm-25.6 0c0 7.3 3.7 12.7 9.8 12.7 6.2 0 9.7-5.1 9.7-12.7 0-7.5-3.5-12.7-9.8-12.7-6.3 0-9.7 5.1-9.7 12.7zm50.7-7.6c0-4.7 0-7.3-.1-9.1h5.8c.1.9.2 3.6.2 6.8 1.8-4.5 5.8-7.5 11.4-7.6v5.8c-7 .2-11.4 3.8-11.4 12.3v16.3h-5.9v-24.5zm44.5 8.7c0 6.8 3.5 11.6 9.3 11.6 5.4 0 7.1-2.7 8.2-5.2h5.9c-1.3 4.3-5 10-14.3 10-10.7 0-15-8.6-15-17.2 0-10 5.1-17.9 15.4-17.9 11 0 14.6 8.7 14.6 15.8 0 1 0 1.9-.1 2.8h-24zm18.1-4.1c-.1-5.5-2.9-9.9-8.7-9.9-6 0-8.6 4.1-9.2 9.9h17.9zm30.9-4.6c0-4.7 0-7.3-.1-9.1h5.8c.1.9.2 3.6.2 6.8 1.8-4.5 5.8-7.5 11.4-7.6v5.8c-7 .2-11.4 3.8-11.4 12.3v16.3h-5.9v-24.5z" style="fill:#545454"/>
</svg>
